<?xml version="1.0" encoding="UTF-8" standalone="no"?>
<!-- Created with Inkscape (http://www.inkscape.org/) -->

<svg
   version="1.1"
   id="svg2"
   width="550.03998"
   height="204.24001"
   viewBox="0 0 550.03998 204.24001"
   sodipodi:docname="2018 NutriLife.eps"
   xmlns:inkscape="http://www.inkscape.org/namespaces/inkscape"
   xmlns:sodipodi="http://sodipodi.sourceforge.net/DTD/sodipodi-0.dtd"
   xmlns="http://www.w3.org/2000/svg"
   xmlns:svg="http://www.w3.org/2000/svg">
  <defs
     id="defs6" />
  <sodipodi:namedview
     id="namedview4"
     pagecolor="#ffffff"
     bordercolor="#000000"
     borderopacity="0.25"
     inkscape:showpageshadow="2"
     inkscape:pageopacity="0.0"
     inkscape:pagecheckerboard="0"
     inkscape:deskcolor="#d1d1d1" />
  <g
     id="g8"
     inkscape:groupmode="layer"
     inkscape:label="ink_ext_XXXXXX"
     transform="matrix(1.3333333,0,0,-1.3333333,0,204.24)">
    <g
       id="g10"
       transform="scale(0.1)">
      <path
         d="m 2662.11,0 c -433.1,0 -861.93,100.602 -1252.45,277.441 l -0.06,0.137 0.14,0.063 c 212.23,-82.309 431.86,-143.422 655.09,-182.1801 172.31,-30.6601 347.21,-48.6406 521.55,-48.6406 51.09,0 102.1,1.5391 153.02,4.7617 112.14,7.168 224.01,21.1797 331.95,49.277 107.19,28.371 212.99,68.961 298.21,135.442 42.24,33.168 78.34,73.14 102.49,119 24.81,45.597 34.22,97.769 31.49,149.269 -6.02,104.332 -63.51,203.141 -133.37,286.883 -71.16,84.219 -157.23,156.856 -248.81,221.037 -91.47,64.69 -189.83,119.94 -290.53,170.14 -101.2,49.37 -205.57,92.51 -311.92,130.22 -106.09,38.49 -214.49,70.9 -324.23,97.96 -219.33,54.78 -444.62,86.61 -670.84,92.62 -19.56,0.43 -39.19,0.65 -58.81,0.65 -206.49,0 -415.6,-24.9 -607.382,-106.49 l -1.05,0.37 0.367,1.05 c 102.109,50.81 213.135,82.78 325.595,102.7 112.6,20.06 227.07,28.87 341.46,30.09 5.16,0.04 10.34,0.05 15.5,0.05 223.77,0 447.06,-28.82 665.39,-77.79 111.75,-25.01 222.39,-55.48 331.06,-92.25 108.44,-37.4 214.95,-80.68 318.64,-130.34 103.21,-50.52 204.28,-106.34 299.16,-172.42 94.96,-65.624 185.05,-140.226 261.55,-229.425 37.95,-44.766 72.38,-93.348 99.4,-146.941 26.95,-53.364 46.7,-112.579 49.19,-174.805 2.91,-61.75 -9.58,-125.66 -39.74,-180.02 C 3494.73,273.121 3452.16,227.551 3404.74,191.02 3308.93,117.98 3196.78,77.0703 3084.73,48.3203 2971.99,20.3711 2856.93,6.26172 2741.99,1.14844 2715.37,0.378906 2688.71,0 2662.11,0"
         style="fill:#cdddaa;fill-opacity:1;fill-rule:nonzero;stroke:none"
         id="path12" />
      <path
         d="M 0,456.801 V 1234.05 H 245.641 L 369.09,995.359 c 42.672,-77.238 87.633,-181.086 122.226,-272.16 h 3.469 c -11.551,102.629 -16.148,211.016 -16.148,326.351 v 184.5 H 668.953 V 456.801 H 449.832 L 317.211,715.094 c -42.672,81.894 -93.453,186.808 -130.398,280.265 h -4.54 C 188,890.387 190.285,773.953 190.285,648.191 V 456.801 H 0"
         style="fill:#386f2e;fill-opacity:1;fill-rule:nonzero;stroke:none"
         id="path14" />
      <path
         d="m 1230.98,628.777 c 0,-67.246 1.94,-121.078 3.82,-161.425 h -149.9 l -7.67,62.457 h -2.88 c -17.31,-25.93 -58.67,-73.008 -143.237,-73.008 -105.726,0 -168.179,68.219 -168.179,204.691 V 940.16 H 936.879 V 689.324 c 0,-60.547 19.223,-93.234 60.578,-93.234 31.713,0 49.033,22.129 55.733,40.39 2.91,6.692 3.85,15.364 3.85,25.012 V 940.16 h 173.94 V 628.777"
         style="fill:#386f2e;fill-opacity:1;fill-rule:nonzero;stroke:none"
         id="path16" />
      <path
         d="M 1528.97,1073.82 V 939.285 h 98.02 V 812.398 h -98.02 v -135.41 c 0,-55.847 12.46,-78.828 54.72,-78.828 20.2,0 26.93,0 41.33,3.781 V 470.262 c -20.13,-7.641 -58.54,-13.461 -102.81,-13.461 -50.94,0 -93.24,18.277 -118.22,43.258 -28.83,28.871 -44.21,75.027 -44.21,147.097 v 165.242 h -58.61 v 126.887 h 58.61 v 88.415 l 169.19,46.12"
         style="fill:#386f2e;fill-opacity:1;fill-rule:nonzero;stroke:none"
         id="path18" />
      <path
         d="m 1706.74,770.066 c 0,74.95 -0.95,120.094 -3.86,159.539 h 148 l 6.76,-85.554 h 3.85 c 24.98,72.129 84.56,96.082 125.86,96.082 15.4,0 22.13,0 34.65,-2.82 V 774.891 c -12.52,2.879 -25.92,4.851 -44.2,4.851 -50.94,0 -85.57,-21.172 -95.18,-59.676 -0.97,-7.636 -1.97,-18.183 -1.97,-29.765 v -233.5 h -173.91 v 313.265"
         style="fill:#386f2e;fill-opacity:1;fill-rule:nonzero;stroke:none"
         id="path20" />
      <path
         d="m 2090.19,456.801 v 472.804 h 173.98 V 456.801 h -173.98"
         style="fill:#386f2e;fill-opacity:1;fill-rule:nonzero;stroke:none"
         id="path22" />
      <path
         d="M 2363.79,1234.05 H 2513.5 V 605.887 h 357.79 V 456.801 h -507.5 v 777.249"
         style="fill:#2a747f;fill-opacity:1;fill-rule:nonzero;stroke:none"
         id="path24" />
      <path
         d="m 2954.13,456.801 v 472.804 h 174.01 V 456.801 Z m 86.54,521.808 c -53.82,0 -87.42,36.561 -87.42,81.681 0,48.03 34.54,82.71 88.42,82.71 53.79,0 87.37,-34.68 88.38,-82.71 0,-45.12 -34.59,-81.681 -88.38,-81.681 h -1"
         style="fill:#2a747f;fill-opacity:1;fill-rule:nonzero;stroke:none"
         id="path26" />
      <path
         d="m 2176.2,988.246 c -53.82,0 -87.42,36.574 -87.42,81.694 0,48.01 34.54,82.71 88.41,82.71 53.79,0 87.39,-34.7 88.39,-82.71 0,-45.12 -34.6,-81.694 -88.39,-81.694 h -0.99"
         style="fill:#386f2e;fill-opacity:1;fill-rule:nonzero;stroke:none"
         id="path28" />
      <path
         d="m 3255.93,456.801 v 345.98 h -60.54 v 126.824 h 60.54 v 15.344 c 0,52.879 18.26,116.311 61.46,155.731 39.49,36.5 93.3,49.02 137.51,49.02 32.62,0 57.67,-3.84 79.74,-8.61 l -2.85,-132.68 c -13.43,2.89 -26.92,4.79 -44.27,4.79 -38.41,0 -59.55,-26.954 -59.55,-60.516 v -23.079 h 86.48 V 802.781 h -84.54 v -345.98 h -173.98"
         style="fill:#2a747f;fill-opacity:1;fill-rule:nonzero;stroke:none"
         id="path30" />
      <path
         d="m 3856.61,759.547 c 0,26.894 -12.46,76.824 -67.25,76.824 -50.97,0 -71.13,-47.019 -74.01,-76.824 z M 3717.29,642.301 c 5.7,-37.512 60.51,-58.613 122.04,-58.613 44.2,0 86.53,4.796 128.77,18.253 l 22.13,-115.332 c -56.73,-22.07 -118.22,-29.808 -176.86,-29.808 -166.24,0 -260.45,91.262 -260.45,241.262 0,109.542 71.13,251.777 245.05,251.777 152.88,0 218.18,-112.461 218.18,-242.235 0,-27.832 -3.85,-53.781 -6.7,-65.304 h -292.16"
         style="fill:#2a747f;fill-opacity:1;fill-rule:nonzero;stroke:none"
         id="path32" />
      <path
         d="m 4037.98,1081.45 h 9.68 c 10.86,0 20.07,3.98 20.07,14.18 0,7.31 -5.23,14.59 -20.07,14.59 -4.39,0 -7.33,-0.31 -9.68,-0.68 z m 0,-45.86 h -13.14 v 82.9 c 6.94,0.97 13.58,1.91 23.47,1.91 12.53,0 20.86,-2.66 25.71,-6.26 4.95,-3.58 7.51,-9.2 7.51,-17.16 0,-10.89 -7.2,-17.47 -16.06,-20.1 v -0.75 c 7.2,-1.25 12.15,-7.89 13.84,-20.1 2,-12.83 4.01,-17.85 5.32,-20.44 h -13.87 c -1.91,2.59 -3.97,10.3 -5.6,21.12 -1.97,10.56 -7.27,14.54 -17.88,14.54 h -9.3 z m 13.87,105.97 c -32.72,0 -59.45,-28.11 -59.45,-62.68 0,-35.38 26.73,-63.11 59.79,-63.11 33.13,-0.32 59.49,27.73 59.49,62.68 0,35 -26.36,63.11 -59.49,63.11 z m 0.34,11.52 c 40.77,0 73.08,-32.99 73.08,-74.2 0,-42.01 -32.31,-74.64 -73.42,-74.64 -40.54,0 -73.6,32.63 -73.6,74.64 0,41.21 33.06,74.2 73.6,74.2 h 0.34"
         style="fill:#2a747f;fill-opacity:1;fill-rule:nonzero;stroke:none"
         id="path34" />
    </g>
  </g>
</svg>
